<?xml version="1.0" standalone="no"?>
<!DOCTYPE svg PUBLIC "-//W3C//DTD SVG 20010904//EN"
 "http://www.w3.org/TR/2001/REC-SVG-20010904/DTD/svg10.dtd">
<svg version="1.0" xmlns="http://www.w3.org/2000/svg"
 width="30.000000pt" height="30.000000pt" viewBox="0 0 30.000000 30.000000"
 preserveAspectRatio="xMidYMid meet">

<g transform="translate(0.000000,30.000000) scale(0.100000,-0.100000)"
fill="#000000" stroke="none">
<path d="M110 263 c-28 -11 -60 -46 -81 -91 l-22 -44 47 -46 c43 -43 50 -47
96 -47 46 0 53 4 96 47 l47 46 -22 44 c-12 25 -32 55 -45 67 -24 23 -87 36
-116 24z m50 -23 c0 -5 -7 -10 -15 -10 -8 0 -15 -4 -15 -10 0 -16 38 -11 48 6
14 24 48 2 63 -41 7 -19 17 -35 21 -35 4 0 8 -7 8 -15 0 -8 -6 -15 -14 -15 -8
0 -18 -9 -21 -20 -7 -23 -53 -50 -85 -50 -32 0 -78 27 -85 50 -3 11 -13 20
-21 20 -8 0 -14 7 -14 15 0 8 4 15 8 15 4 0 14 16 21 35 12 35 50 64 84 65 9
0 17 -4 17 -10z"/>
<path d="M90 155 c0 -8 7 -15 15 -15 8 0 15 7 15 15 0 8 -7 15 -15 15 -8 0
-15 -7 -15 -15z"/>
<path d="M180 155 c0 -8 7 -15 15 -15 8 0 15 7 15 15 0 8 -7 15 -15 15 -8 0
-15 -7 -15 -15z"/>
<path d="M102 108 c12 -34 84 -34 96 0 3 10 -2 10 -22 1 -20 -9 -32 -9 -52 0
-20 9 -25 9 -22 -1z"/>
</g>
</svg>
