<?xml version="1.0" encoding="UTF-8"?><svg id="Capa_1" xmlns="http://www.w3.org/2000/svg" viewBox="0 0 1085.75 1054"><defs><style>.cls-1{fill:#c984d4;stroke-width:4px;}.cls-1,.cls-2,.cls-3,.cls-4{stroke:#722c8c;stroke-miterlimit:10;}.cls-5{fill:#f5e7eb;}.cls-6{fill:#fff;}.cls-2{fill:none;stroke-width:8px;}.cls-7{fill:#e8fbff;}.cls-8{fill:#722c8c;}.cls-9{fill:#24c1d4;}.cls-10{fill:#64216f;}.cls-3{fill:#c369a8;stroke-width:3px;}.cls-11,.cls-4{fill:#ffb37e;}.cls-4{stroke-width:5px;}</style></defs><ellipse id="Fondo" class="cls-7" cx="542.87" cy="506" rx="493.85" ry="471.01"/><g id="Ian"><path class="cls-11" d="m464.59,1015.84c-20.62,0-42.89-.67-68.03-2.05l-115.86-199.2c-43.58-78.97-64.99-163.84-61.9-245.38,3.19-84.2,32.67-159.26,85.25-217.08,26.71-29.37,59.3-54.17,96.87-73.7,55.62-28.92,113.4-43.59,171.73-43.59,72.77,0,145.74,23.39,211.02,67.63,63.7,43.17,119.07,105.33,160.14,179.75l53.69,95.26c25.99,46.11,32.88,99.13,19.42,149.3-4.63,17.26-10,28.13-18.9,46.14-5.67,11.47-12.72,25.74-21.71,46.1-18.87,42.74-52.49,78.35-94.66,100.28l-173.62,90.28c-28.91-2.7-53.68-4.01-75.69-4.01-29.17,0-50.37,2.26-72.82,4.66-25.82,2.76-52.52,5.61-94.92,5.61Z"/><path class="cls-8" d="m572.67,237.33c36.64,0,73.32,5.89,109.04,17.51,34.76,11.31,68.6,28.03,100.57,49.7,63.37,42.95,118.47,104.81,159.36,178.93l53.67,95.24c12.68,22.49,20.79,46.72,24.11,72,3.34,25.43,1.68,50.81-4.93,75.43-4.57,17.02-9.9,27.81-18.73,45.68-5.68,11.49-12.74,25.79-21.75,46.19-18.64,42.22-51.86,77.4-93.52,99.07l-172.97,89.94c-28.67-2.66-53.28-3.95-75.19-3.95-29.31,0-50.57,2.27-73.08,4.68-25.76,2.75-52.39,5.6-94.65,5.6-20.22,0-42.01-.65-66.55-1.97l-115.16-197.99c-21.51-38.99-37.72-79.8-48.17-121.3-10.42-41.38-14.94-82.69-13.42-122.77,3.17-83.6,32.42-158.12,84.6-215.49,26.51-29.15,58.87-53.77,96.17-73.16,55.26-28.73,112.65-43.3,170.6-43.31h0m-.02-5c-56.66,0-115.06,13.8-172.89,43.87h0c-38.9,20.23-71.33,45.39-97.56,74.24-110.08,121.04-111.1,306.94-23.66,465.4l116.54,200.37c27.28,1.52,50,2.13,69.51,2.13,79.98,0,105.71-10.27,167.73-10.27,20.4,0,44.72,1.11,76.19,4.06l174.27-90.62c42.87-22.29,76.63-58.09,95.79-101.48,22.84-51.71,33.01-63.78,40.74-92.6,13.67-50.92,6.36-105.02-19.65-151.18l-53.67-95.24c-82.81-150.07-221.87-248.69-373.34-248.68h0Z"/><path class="cls-4" d="m733.76,277.2c119.03,46.5,186.62,72.54,232.47,67.05,5.35-.64,8.09,6.02,3.76,9.14-25.98,18.71-85.1,50.24-101.83,42.89"/><path class="cls-4" d="m865.38,395.19c119.03,46.5,152.89,70.82,198.74,65.32,5.35-.64,7.21,17.88,2.88,21-25.98,18.71-95.87,48.77-112.6,41.41"/><path class="cls-4" d="m225.93,539.67c-26.08,121.96-40.05,184.71-70.17,218.71-3.51,3.97.68,9.87,5.75,8.1,30.44-10.63,90.24-40.93,93.2-58.53"/><path class="cls-4" d="m255.33,705.11c-26.08,121.96-27.68,158.11-57.79,192.12-3.51,3.97,9.35,28.36,14.42,26.59,30.44-10.63,100.62-58.4,103.58-76"/><path class="cls-4" d="m306.72,349.2s-176.28,191.21-286.14,169.05c-2.49-.5-3.97,2.58-2,4.13,23.15,18.19,99.38,63.7,210.94,29.72"/><path class="cls-4" d="m521.72,238.2s260.89-36.87,302.76-137.92c.95-2.29,4.41-1.78,4.65.68,2.77,28.78-.44,115.6-91.4,186.93"/><ellipse class="cls-5" cx="449.46" cy="651.3" rx="97.36" ry="136.04" transform="translate(-267.65 316.7) rotate(-30.38)"/><ellipse class="cls-5" cx="696.05" cy="523.09" rx="97.36" ry="136.04" transform="translate(-168.96 423.79) rotate(-30.38)"/><ellipse class="cls-10" cx="408.58" cy="624.12" rx="56.22" ry="90.3" transform="translate(-55.24 39.88) rotate(-5.23)"/><ellipse class="cls-10" cx="651.94" cy="502.4" rx="56.17" ry="90.39" transform="translate(-89.04 144.09) rotate(-11.81)"/><ellipse class="cls-6" cx="383.58" cy="563.77" rx="24.17" ry="24.85" transform="translate(-296.69 610.75) rotate(-59.72)"/><ellipse class="cls-6" cx="617.68" cy="455.21" rx="24.37" ry="24.64" transform="translate(-120.37 665.01) rotate(-52.26)"/><path class="cls-2" d="m554.84,769.88c1.8,4.48,2.85,9.19,5.28,13.39,2.37,4.07,5.86,7.59,10.19,8.85,4.59,1.34,9.65-.06,13.52-3.03,3.87-2.97,6.64-7.37,8.45-12.08,2.27-5.89,3.29-12.56,7.17-17.4,3.26-4.07,8.22-6.29,13.19-6.83,3.18-.35,12.06,2.91,14.27,1.71,1.04-.56,2.11-5.55,2.6-6.74,2.01-4.87,4.1-10.2,6.91-14.62,4.24-6.68,9.75-12.84,16.63-16.32,8.58-4.35,18.22-5.26,27.54-4.01,8.39,1.12,15.84,6.95,24.54,5.92,6.76-.8,13.44-7.31,12.17-14.45-.37-2.08-1.35-3.99-1.65-6.08s.38-4.62,2.24-5.34c.95-.37,2-.17,3,.02,6.11,1.21,12.23,2.41,18.34,3.62,2.76.54,5.97.96,8.05-1.06,1.91-1.86,2.02-5.01,1.78-7.75-.4-4.43-1.41-8.95-3.98-12.44-3.49-4.75-9.05-6.44-13.29-2.15"/><ellipse class="cls-3" cx="670.48" cy="743.96" rx="27.19" ry="31.73" transform="translate(-296.17 482.05) rotate(-32.81)"/><path class="cls-1" d="m355.23,445.76s-112.25-2-75.01,93.65c1.06,2.72,3.47,4.75,6.4,5.4l12,2.67c4.72,1.05,11.24-1.59,10.69-6.26-7.73-65.61,19.16-62.52,38.54-67.05,1-.23,2.99-.74,5.55-1.44,13.3-3.64,14.44-21.52,1.7-26.71h0"/><path class="cls-1" d="m559.41,359.26s37.35-102.78,116.62-35.44c2.26,1.92,3.37,4.82,2.97,7.71l-1.62,11.84c-.64,4.66-5.47,9.67-9.78,7.53-60.61-29.99-67.03-4.46-78.2,11.59-.58.83-1.76,2.46-3.33,4.54-8.16,10.82-25.82,5.6-26.37-7.8h0"/></g><path id="Borde" class="cls-9" d="m542.87,0C243.05,0,0,235.95,0,527s243.05,527,542.87,527,542.87-235.95,542.87-527S842.69,0,542.87,0Zm-.72,981.21c-261.99,0-474.38-206.18-474.38-460.51S280.16,60.19,542.15,60.19s474.38,206.18,474.38,460.51-212.39,460.51-474.38,460.51Z"/></svg>